# xmcd
#
# Track frame offsets:
#	150
#	9894
#	28763
#	51515
#	64467
#	78813
#
# Disc length: 1245 seconds
#
# Revision: 1
# Processed by: cddbd v1.4PL0 Copyright (c) Steve Scherf et al.
# Submitted via: audiograbber 1.81.02
#
DISCID=4504db06
DTITLE=Ramblin´ Blues Band - Ramblin´ Blues Band 1
DYEAR=2002
DGENRE=Blues
TTITLE0=Bottom Blues
TTITLE1=That did it Baby
TTITLE2=King bee
TTITLE3=Peepin´ and hidin´
TTITLE4=Shadow on the moon
TTITLE5=Don´t start me talking
EXTD=
EXTT0=
EXTT1=
EXTT2=
EXTT3=
EXTT4=
EXTT5=
PLAYORDER=
